<svg width="187" height="70" viewBox="0 0 187 70" fill="none" xmlns="http://www.w3.org/2000/svg">
<g clip-path="url(#clip0_0_1)">
<path d="M116.354 47.3542L74.7708 5.77087L73.1667 4.16671L71.6458 2.64587L69 5.29171L78.1458 14.4375L82.75 24.1459L79.9375 29.25C79.6042 29.8334 79.4167 30.5209 79.4167 31.25C79.4167 33.5417 81.2917 35.4167 83.5833 35.4167H99.125L102 38.2917C100.958 39.0417 100.271 40.2709 100.271 41.6667C100.271 43.9584 102.125 45.8334 104.417 45.8334C105.812 45.8334 107.042 45.1459 107.792 44.0834L113.708 50L116.354 47.3542ZM84.4583 31.25C84.1667 31.25 83.9375 31.0209 83.9375 30.7292L84 30.4792L85.875 27.0834H90.7917L94.9583 31.25H84.4583ZM101.396 27.0834C102.958 27.0834 104.333 26.2292 105.042 24.9375L112.5 11.4167C112.667 11.125 112.75 10.7709 112.75 10.4167C112.75 9.27087 111.812 8.33337 110.667 8.33337H82.625L101.396 27.0834ZM83.5833 37.5C81.2917 37.5 79.4375 39.375 79.4375 41.6667C79.4375 43.9584 81.2917 45.8334 83.5833 45.8334C85.875 45.8334 87.75 43.9584 87.75 41.6667C87.75 39.375 85.875 37.5 83.5833 37.5Z" fill="#C4C4C4"/>
</g>
<path d="M4.864 69.112C4.11733 69.112 3.44533 68.984 2.848 68.728C2.25067 68.4613 1.78133 68.088 1.44 67.608C1.09867 67.128 0.928 66.568 0.928 65.928H2.88C2.92267 66.408 3.10933 66.8027 3.44 67.112C3.78133 67.4213 4.256 67.576 4.864 67.576C5.49333 67.576 5.984 67.4267 6.336 67.128C6.688 66.8187 6.864 66.424 6.864 65.944C6.864 65.5707 6.752 65.2667 6.528 65.032C6.31467 64.7973 6.04267 64.616 5.712 64.488C5.392 64.36 4.944 64.2213 4.368 64.072C3.64267 63.88 3.05067 63.688 2.592 63.496C2.144 63.2933 1.76 62.984 1.44 62.568C1.12 62.152 0.96 61.5973 0.96 60.904C0.96 60.264 1.12 59.704 1.44 59.224C1.76 58.744 2.208 58.376 2.784 58.12C3.36 57.864 4.02667 57.736 4.784 57.736C5.86133 57.736 6.74133 58.008 7.424 58.552C8.11733 59.0853 8.50133 59.8213 8.576 60.76H6.56C6.528 60.3547 6.336 60.008 5.984 59.72C5.632 59.432 5.168 59.288 4.592 59.288C4.06933 59.288 3.64267 59.4213 3.312 59.688C2.98133 59.9547 2.816 60.3387 2.816 60.84C2.816 61.1813 2.91733 61.464 3.12 61.688C3.33333 61.9013 3.6 62.072 3.92 62.2C4.24 62.328 4.67733 62.4667 5.232 62.616C5.968 62.8187 6.56533 63.0213 7.024 63.224C7.49333 63.4267 7.888 63.7413 8.208 64.168C8.53867 64.584 8.704 65.144 8.704 65.848C8.704 66.4133 8.54933 66.9467 8.24 67.448C7.94133 67.9493 7.49867 68.3547 6.912 68.664C6.336 68.9627 5.65333 69.112 4.864 69.112ZM18.9363 64.376C18.9363 64.7067 18.9149 65.0053 18.8723 65.272H12.1363C12.1896 65.976 12.4509 66.5413 12.9203 66.968C13.3896 67.3947 13.9656 67.608 14.6483 67.608C15.6296 67.608 16.3229 67.1973 16.7283 66.376H18.6962C18.4296 67.1867 17.9443 67.8533 17.2403 68.376C16.5469 68.888 15.6829 69.144 14.6483 69.144C13.8056 69.144 13.0483 68.9573 12.3763 68.584C11.7149 68.2 11.1923 67.6667 10.8083 66.984C10.4349 66.2907 10.2483 65.4907 10.2483 64.584C10.2483 63.6773 10.4296 62.8827 10.7923 62.2C11.1656 61.5067 11.6829 60.9733 12.3443 60.6C13.0163 60.2267 13.7843 60.04 14.6483 60.04C15.4803 60.04 16.2216 60.2213 16.8723 60.584C17.5229 60.9467 18.0296 61.4587 18.3923 62.12C18.7549 62.7707 18.9363 63.5227 18.9363 64.376ZM17.0323 63.8C17.0216 63.128 16.7816 62.5893 16.3123 62.184C15.8429 61.7787 15.2616 61.576 14.5683 61.576C13.9389 61.576 13.4003 61.7787 12.9523 62.184C12.5043 62.5787 12.2376 63.1173 12.1523 63.8H17.0323ZM28.7153 60.184V69H26.8913V67.96C26.6033 68.3227 26.2246 68.6107 25.7553 68.824C25.2966 69.0267 24.8059 69.128 24.2833 69.128C23.5899 69.128 22.9659 68.984 22.4113 68.696C21.8673 68.408 21.4353 67.9813 21.1153 67.416C20.8059 66.8507 20.6513 66.168 20.6513 65.368V60.184H22.4593V65.096C22.4593 65.8853 22.6566 66.4933 23.0513 66.92C23.4459 67.336 23.9846 67.544 24.6673 67.544C25.3499 67.544 25.8886 67.336 26.2833 66.92C26.6886 66.4933 26.8913 65.8853 26.8913 65.096V60.184H28.7153ZM34.6701 64.584C34.6701 63.6773 34.8515 62.8827 35.2141 62.2C35.5875 61.5067 36.0995 60.9733 36.7501 60.6C37.4008 60.2267 38.1475 60.04 38.9901 60.04C40.0568 60.04 40.9368 60.296 41.6301 60.808C42.3341 61.3093 42.8088 62.0293 43.0541 62.968H41.0861C40.9261 62.5307 40.6701 62.1893 40.3181 61.944C39.9661 61.6987 39.5235 61.576 38.9901 61.576C38.2435 61.576 37.6461 61.8427 37.1981 62.376C36.7608 62.8987 36.5421 63.6347 36.5421 64.584C36.5421 65.5333 36.7608 66.2747 37.1981 66.808C37.6461 67.3413 38.2435 67.608 38.9901 67.608C40.0461 67.608 40.7448 67.144 41.0861 66.216H43.0541C42.7981 67.112 42.3181 67.8267 41.6141 68.36C40.9101 68.8827 40.0355 69.144 38.9901 69.144C38.1475 69.144 37.4008 68.9573 36.7501 68.584C36.0995 68.2 35.5875 67.6667 35.2141 66.984C34.8515 66.2907 34.6701 65.4907 34.6701 64.584ZM44.2639 64.552C44.2639 63.6667 44.4452 62.8827 44.8079 62.2C45.1812 61.5173 45.6825 60.9893 46.3119 60.616C46.9519 60.232 47.6559 60.04 48.4239 60.04C49.1172 60.04 49.7199 60.1787 50.2319 60.456C50.7545 60.7227 51.1705 61.0587 51.4799 61.464V60.184H53.3199V69H51.4799V67.688C51.1705 68.104 50.7492 68.4507 50.2159 68.728C49.6825 69.0053 49.0745 69.144 48.3919 69.144C47.6345 69.144 46.9412 68.952 46.3119 68.568C45.6825 68.1733 45.1812 67.6293 44.8079 66.936C44.4452 66.232 44.2639 65.4373 44.2639 64.552ZM51.4799 64.584C51.4799 63.976 51.3519 63.448 51.0959 63C50.8505 62.552 50.5252 62.2107 50.1199 61.976C49.7145 61.7413 49.2772 61.624 48.8079 61.624C48.3385 61.624 47.9012 61.7413 47.4959 61.976C47.0905 62.2 46.7599 62.536 46.5039 62.984C46.2585 63.4213 46.1359 63.944 46.1359 64.552C46.1359 65.16 46.2585 65.6933 46.5039 66.152C46.7599 66.6107 47.0905 66.9627 47.4959 67.208C47.9119 67.4427 48.3492 67.56 48.8079 67.56C49.2772 67.56 49.7145 67.4427 50.1199 67.208C50.5252 66.9733 50.8505 66.632 51.0959 66.184C51.3519 65.7253 51.4799 65.192 51.4799 64.584ZM57.5396 61.464C57.8063 61.016 58.1583 60.6693 58.5956 60.424C59.0436 60.168 59.5716 60.04 60.1796 60.04V61.928H59.7156C59.001 61.928 58.457 62.1093 58.0836 62.472C57.721 62.8347 57.5396 63.464 57.5396 64.36V69H55.7156V60.184H57.5396V61.464ZM63.6803 61.464C63.9469 61.016 64.2989 60.6693 64.7363 60.424C65.1843 60.168 65.7123 60.04 66.3203 60.04V61.928H65.8563C65.1416 61.928 64.5976 62.1093 64.2243 62.472C63.8616 62.8347 63.6803 63.464 63.6803 64.36V69H61.8563V60.184H63.6803V61.464ZM68.9249 59.016C68.5942 59.016 68.3169 58.904 68.0929 58.68C67.8689 58.456 67.7569 58.1787 67.7569 57.848C67.7569 57.5173 67.8689 57.24 68.0929 57.016C68.3169 56.792 68.5942 56.68 68.9249 56.68C69.2449 56.68 69.5169 56.792 69.7409 57.016C69.9649 57.24 70.0769 57.5173 70.0769 57.848C70.0769 58.1787 69.9649 58.456 69.7409 58.68C69.5169 58.904 69.2449 59.016 68.9249 59.016ZM69.8209 60.184V69H67.9969V60.184H69.8209ZM76.6636 60.04C77.357 60.04 77.9756 60.184 78.5196 60.472C79.0743 60.76 79.5063 61.1867 79.8156 61.752C80.125 62.3173 80.2796 63 80.2796 63.8V69H78.4716V64.072C78.4716 63.2827 78.2743 62.68 77.8796 62.264C77.485 61.8373 76.9463 61.624 76.2636 61.624C75.581 61.624 75.037 61.8373 74.6316 62.264C74.237 62.68 74.0396 63.2827 74.0396 64.072V69H72.2156V60.184H74.0396V61.192C74.3383 60.8293 74.717 60.5467 75.1756 60.344C75.645 60.1413 76.141 60.04 76.6636 60.04ZM87.1663 60.04C87.8383 60.04 88.4356 60.184 88.9583 60.472C89.4916 60.76 89.9076 61.1867 90.2063 61.752C90.5156 62.3173 90.6703 63 90.6703 63.8V69H88.8623V64.072C88.8623 63.2827 88.6649 62.68 88.2703 62.264C87.8756 61.8373 87.3369 61.624 86.6543 61.624C85.9716 61.624 85.4276 61.8373 85.0223 62.264C84.6276 62.68 84.4303 63.2827 84.4303 64.072V69H82.6063V57.16H84.4303V61.208C84.7396 60.8347 85.1289 60.5467 85.5983 60.344C86.0783 60.1413 86.6009 60.04 87.1663 60.04ZM96.8209 69.144C95.9889 69.144 95.2369 68.9573 94.5649 68.584C93.8929 68.2 93.3649 67.6667 92.9809 66.984C92.5969 66.2907 92.4049 65.4907 92.4049 64.584C92.4049 63.688 92.6022 62.8933 92.9969 62.2C93.3915 61.5067 93.9302 60.9733 94.6129 60.6C95.2955 60.2267 96.0582 60.04 96.9009 60.04C97.7435 60.04 98.5062 60.2267 99.1889 60.6C99.8715 60.9733 100.41 61.5067 100.805 62.2C101.2 62.8933 101.397 63.688 101.397 64.584C101.397 65.48 101.194 66.2747 100.789 66.968C100.384 67.6613 99.8289 68.2 99.1249 68.584C98.4315 68.9573 97.6635 69.144 96.8209 69.144ZM96.8209 67.56C97.2902 67.56 97.7275 67.448 98.1329 67.224C98.5489 67 98.8849 66.664 99.1409 66.216C99.3969 65.768 99.5249 65.224 99.5249 64.584C99.5249 63.944 99.4022 63.4053 99.1569 62.968C98.9115 62.52 98.5862 62.184 98.1809 61.96C97.7755 61.736 97.3382 61.624 96.8689 61.624C96.3995 61.624 95.9622 61.736 95.5569 61.96C95.1622 62.184 94.8475 62.52 94.6129 62.968C94.3782 63.4053 94.2609 63.944 94.2609 64.584C94.2609 65.5333 94.5009 66.2693 94.9809 66.792C95.4715 67.304 96.0849 67.56 96.8209 67.56ZM115.436 64.376C115.436 64.7067 115.415 65.0053 115.372 65.272H108.636C108.69 65.976 108.951 66.5413 109.42 66.968C109.89 67.3947 110.466 67.608 111.148 67.608C112.13 67.608 112.823 67.1973 113.228 66.376H115.196C114.93 67.1867 114.444 67.8533 113.74 68.376C113.047 68.888 112.183 69.144 111.148 69.144C110.306 69.144 109.548 68.9573 108.876 68.584C108.215 68.2 107.692 67.6667 107.308 66.984C106.935 66.2907 106.748 65.4907 106.748 64.584C106.748 63.6773 106.93 62.8827 107.292 62.2C107.666 61.5067 108.183 60.9733 108.844 60.6C109.516 60.2267 110.284 60.04 111.148 60.04C111.98 60.04 112.722 60.2213 113.372 60.584C114.023 60.9467 114.53 61.4587 114.892 62.12C115.255 62.7707 115.436 63.5227 115.436 64.376ZM113.532 63.8C113.522 63.128 113.282 62.5893 112.812 62.184C112.343 61.7787 111.762 61.576 111.068 61.576C110.439 61.576 109.9 61.7787 109.452 62.184C109.004 62.5787 108.738 63.1173 108.652 63.8H113.532ZM120.431 69.144C119.738 69.144 119.114 69.0213 118.559 68.776C118.015 68.52 117.583 68.1787 117.263 67.752C116.943 67.3147 116.773 66.8293 116.751 66.296H118.639C118.671 66.6693 118.847 66.984 119.167 67.24C119.498 67.4853 119.909 67.608 120.399 67.608C120.911 67.608 121.306 67.512 121.583 67.32C121.871 67.1173 122.015 66.8613 122.015 66.552C122.015 66.2213 121.855 65.976 121.535 65.816C121.226 65.656 120.73 65.48 120.047 65.288C119.386 65.1067 118.847 64.9307 118.431 64.76C118.015 64.5893 117.653 64.328 117.343 63.976C117.045 63.624 116.895 63.16 116.895 62.584C116.895 62.1147 117.034 61.688 117.311 61.304C117.589 60.9093 117.983 60.6 118.495 60.376C119.018 60.152 119.615 60.04 120.287 60.04C121.29 60.04 122.095 60.296 122.703 60.808C123.322 61.3093 123.653 61.9973 123.695 62.872H121.871C121.839 62.4773 121.679 62.1627 121.391 61.928C121.103 61.6933 120.714 61.576 120.223 61.576C119.743 61.576 119.375 61.6667 119.119 61.848C118.863 62.0293 118.735 62.2693 118.735 62.568C118.735 62.8027 118.821 63 118.991 63.16C119.162 63.32 119.37 63.448 119.615 63.544C119.861 63.6293 120.223 63.7413 120.703 63.88C121.343 64.0507 121.866 64.2267 122.271 64.408C122.687 64.5787 123.045 64.8347 123.343 65.176C123.642 65.5173 123.797 65.9707 123.807 66.536C123.807 67.0373 123.669 67.4853 123.391 67.88C123.114 68.2747 122.719 68.584 122.207 68.808C121.706 69.032 121.114 69.144 120.431 69.144ZM127.906 61.672V66.552C127.906 66.8827 127.981 67.1227 128.13 67.272C128.29 67.4107 128.557 67.48 128.93 67.48H130.05V69H128.61C127.789 69 127.159 68.808 126.722 68.424C126.285 68.04 126.066 67.416 126.066 66.552V61.672H125.026V60.184H126.066V57.992H127.906V60.184H130.05V61.672H127.906ZM131.123 64.552C131.123 63.6667 131.305 62.8827 131.667 62.2C132.041 61.5173 132.542 60.9893 133.171 60.616C133.811 60.232 134.515 60.04 135.283 60.04C135.977 60.04 136.579 60.1787 137.091 60.456C137.614 60.7227 138.03 61.0587 138.339 61.464V60.184H140.179V69H138.339V67.688C138.03 68.104 137.609 68.4507 137.075 68.728C136.542 69.0053 135.934 69.144 135.251 69.144C134.494 69.144 133.801 68.952 133.171 68.568C132.542 68.1733 132.041 67.6293 131.667 66.936C131.305 66.232 131.123 65.4373 131.123 64.552ZM138.339 64.584C138.339 63.976 138.211 63.448 137.955 63C137.71 62.552 137.385 62.2107 136.979 61.976C136.574 61.7413 136.137 61.624 135.667 61.624C135.198 61.624 134.761 61.7413 134.355 61.976C133.95 62.2 133.619 62.536 133.363 62.984C133.118 63.4213 132.995 63.944 132.995 64.552C132.995 65.16 133.118 65.6933 133.363 66.152C133.619 66.6107 133.95 66.9627 134.355 67.208C134.771 67.4427 135.209 67.56 135.667 67.56C136.137 67.56 136.574 67.4427 136.979 67.208C137.385 66.9733 137.71 66.632 137.955 66.184C138.211 65.7253 138.339 65.192 138.339 64.584ZM137.603 57.816L134.067 59.56V58.216L137.603 56.264V57.816ZM150.139 67.368L152.635 60.184H154.571L151.211 69H149.035L145.691 60.184H147.643L150.139 67.368ZM155.342 64.552C155.342 63.6667 155.523 62.8827 155.886 62.2C156.259 61.5173 156.761 60.9893 157.39 60.616C158.03 60.232 158.734 60.04 159.502 60.04C160.195 60.04 160.798 60.1787 161.31 60.456C161.833 60.7227 162.249 61.0587 162.558 61.464V60.184H164.398V69H162.558V67.688C162.249 68.104 161.827 68.4507 161.294 68.728C160.761 69.0053 160.153 69.144 159.47 69.144C158.713 69.144 158.019 68.952 157.39 68.568C156.761 68.1733 156.259 67.6293 155.886 66.936C155.523 66.232 155.342 65.4373 155.342 64.552ZM162.558 64.584C162.558 63.976 162.43 63.448 162.174 63C161.929 62.552 161.603 62.2107 161.198 61.976C160.793 61.7413 160.355 61.624 159.886 61.624C159.417 61.624 158.979 61.7413 158.574 61.976C158.169 62.2 157.838 62.536 157.582 62.984C157.337 63.4213 157.214 63.944 157.214 64.552C157.214 65.16 157.337 65.6933 157.582 66.152C157.838 66.6107 158.169 66.9627 158.574 67.208C158.99 67.4427 159.427 67.56 159.886 67.56C160.355 67.56 160.793 67.4427 161.198 67.208C161.603 66.9733 161.929 66.632 162.174 66.184C162.43 65.7253 162.558 65.192 162.558 64.584ZM168.41 67.512H172.41V69H166.298V67.512L170.314 61.672H166.298V60.184H172.41V61.672L168.41 67.512ZM175.253 59.016C174.922 59.016 174.645 58.904 174.421 58.68C174.197 58.456 174.085 58.1787 174.085 57.848C174.085 57.5173 174.197 57.24 174.421 57.016C174.645 56.792 174.922 56.68 175.253 56.68C175.573 56.68 175.845 56.792 176.069 57.016C176.293 57.24 176.405 57.5173 176.405 57.848C176.405 58.1787 176.293 58.456 176.069 58.68C175.845 58.904 175.573 59.016 175.253 59.016ZM176.149 60.184V69H174.325V60.184H176.149ZM182.368 69.144C181.536 69.144 180.784 68.9573 180.112 68.584C179.44 68.2 178.912 67.6667 178.528 66.984C178.144 66.2907 177.952 65.4907 177.952 64.584C177.952 63.688 178.149 62.8933 178.544 62.2C178.938 61.5067 179.477 60.9733 180.16 60.6C180.842 60.2267 181.605 60.04 182.448 60.04C183.29 60.04 184.053 60.2267 184.736 60.6C185.418 60.9733 185.957 61.5067 186.352 62.2C186.746 62.8933 186.944 63.688 186.944 64.584C186.944 65.48 186.741 66.2747 186.336 66.968C185.93 67.6613 185.376 68.2 184.672 68.584C183.978 68.9573 183.21 69.144 182.368 69.144ZM182.368 67.56C182.837 67.56 183.274 67.448 183.68 67.224C184.096 67 184.432 66.664 184.688 66.216C184.944 65.768 185.072 65.224 185.072 64.584C185.072 63.944 184.949 63.4053 184.704 62.968C184.458 62.52 184.133 62.184 183.728 61.96C183.322 61.736 182.885 61.624 182.416 61.624C181.946 61.624 181.509 61.736 181.104 61.96C180.709 62.184 180.394 62.52 180.16 62.968C179.925 63.4053 179.808 63.944 179.808 64.584C179.808 65.5333 180.048 66.2693 180.528 66.792C181.018 67.304 181.632 67.56 182.368 67.56Z" fill="#E1E1E6"/>
<defs>
<clipPath id="clip0_0_1">
<rect width="50" height="50" fill="white" transform="translate(69)"/>
</clipPath>
</defs>
</svg>
