<svg width="53" height="53" viewBox="0 0 53 53" fill="none" xmlns="http://www.w3.org/2000/svg">
<g clip-path="url(#clip0_0_1)">
<path d="M30.9999 29V21C30.9999 19.24 33.2399 17 35.9999 17V33.17L33.9999 31.17V29H30.9999ZM35.4899 38.31L25.0199 27.85C24.6899 27.94 24.3599 28 23.9999 28V37H21.9999V28C19.7899 28 17.9999 26.21 17.9999 24V20.83L15.6899 18.51L17.0999 17.1L36.8999 36.9L35.4899 38.31ZM21.1699 24L19.9999 22.83V24H21.1699ZM23.9999 17H21.9999V19.17L23.9999 21.17V17ZM27.9999 24V17H25.9999V23.17L27.8499 25.02C27.9399 24.69 27.9999 24.36 27.9999 24Z" fill="white"/>
</g>
<circle cx="26.5" cy="26.5" r="26" stroke="#D9D9D9" stroke-opacity="0.08"/>
<defs>
<clipPath id="clip0_0_1">
<rect width="24" height="24" fill="white" transform="translate(15 15)"/>
</clipPath>
</defs>
</svg>
