<svg width="190" height="30" viewBox="0 0 190 30" fill="none" xmlns="http://www.w3.org/2000/svg">
<path d="M44.7698 23H41.2141V8.55634C41.2141 7.55093 41.4103 6.70491 41.8026 6.01828C42.2032 5.32348 42.7631 4.80034 43.4824 4.44885C44.2099 4.08919 45.0723 3.90936 46.0695 3.90936C46.3965 3.90936 46.7112 3.93388 47.0136 3.98293C47.3161 4.0238 47.6103 4.07693 47.8964 4.14232L47.8596 6.80299C47.7043 6.76212 47.5409 6.73351 47.3692 6.71717C47.1975 6.70082 46.9973 6.69264 46.7684 6.69264C46.3433 6.69264 45.9796 6.76621 45.6772 6.91335C45.3829 7.0523 45.1581 7.26074 45.0028 7.53866C44.8475 7.81658 44.7698 8.15581 44.7698 8.55634V23ZM47.4182 9.73341V12.2347H39.24V9.73341H47.4182ZM48.7057 16.5016V16.2441C48.7057 15.2714 48.8446 14.3763 49.1225 13.5589C49.4005 12.7333 49.8051 12.0181 50.3364 11.4132C50.8677 10.8083 51.5216 10.3383 52.2982 10.0032C53.0747 9.65985 53.9657 9.48819 54.9711 9.48819C55.9765 9.48819 56.8716 9.65985 57.6563 10.0032C58.441 10.3383 59.099 10.8083 59.6304 11.4132C60.1699 12.0181 60.5786 12.7333 60.8565 13.5589C61.1344 14.3763 61.2734 15.2714 61.2734 16.2441V16.5016C61.2734 17.4661 61.1344 18.3612 60.8565 19.1868C60.5786 20.0042 60.1699 20.7194 59.6304 21.3325C59.099 21.9374 58.4451 22.4074 57.6686 22.7425C56.892 23.0777 56.0011 23.2452 54.9956 23.2452C53.9902 23.2452 53.0952 23.0777 52.3104 22.7425C51.5339 22.4074 50.8759 21.9374 50.3364 21.3325C49.8051 20.7194 49.4005 20.0042 49.1225 19.1868C48.8446 18.3612 48.7057 17.4661 48.7057 16.5016ZM52.2369 16.2441V16.5016C52.2369 17.0574 52.2859 17.5765 52.384 18.0587C52.4821 18.541 52.6374 18.9661 52.8499 19.3339C53.0706 19.6936 53.3567 19.9756 53.7082 20.1799C54.0597 20.3843 54.4888 20.4865 54.9956 20.4865C55.4861 20.4865 55.9071 20.3843 56.2585 20.1799C56.61 19.9756 56.892 19.6936 57.1046 19.3339C57.3171 18.9661 57.4724 18.541 57.5705 18.0587C57.6768 17.5765 57.7299 17.0574 57.7299 16.5016V16.2441C57.7299 15.7046 57.6768 15.1978 57.5705 14.7237C57.4724 14.2414 57.313 13.8164 57.0923 13.4485C56.8798 13.0725 56.5978 12.7783 56.2463 12.5657C55.8948 12.3532 55.4697 12.247 54.9711 12.247C54.4725 12.247 54.0474 12.3532 53.696 12.5657C53.3526 12.7783 53.0706 13.0725 52.8499 13.4485C52.6374 13.8164 52.4821 14.2414 52.384 14.7237C52.2859 15.1978 52.2369 15.7046 52.2369 16.2441ZM62.8796 16.5016V16.2441C62.8796 15.2714 63.0185 14.3763 63.2965 13.5589C63.5744 12.7333 63.979 12.0181 64.5103 11.4132C65.0416 10.8083 65.6956 10.3383 66.4721 10.0032C67.2486 9.65985 68.1396 9.48819 69.145 9.48819C70.1505 9.48819 71.0455 9.65985 71.8302 10.0032C72.6149 10.3383 73.273 10.8083 73.8043 11.4132C74.3438 12.0181 74.7525 12.7333 75.0304 13.5589C75.3083 14.3763 75.4473 15.2714 75.4473 16.2441V16.5016C75.4473 17.4661 75.3083 18.3612 75.0304 19.1868C74.7525 20.0042 74.3438 20.7194 73.8043 21.3325C73.273 21.9374 72.619 22.4074 71.8425 22.7425C71.066 23.0777 70.175 23.2452 69.1696 23.2452C68.1641 23.2452 67.2691 23.0777 66.4844 22.7425C65.7078 22.4074 65.0498 21.9374 64.5103 21.3325C63.979 20.7194 63.5744 20.0042 63.2965 19.1868C63.0185 18.3612 62.8796 17.4661 62.8796 16.5016ZM66.4108 16.2441V16.5016C66.4108 17.0574 66.4598 17.5765 66.5579 18.0587C66.656 18.541 66.8113 18.9661 67.0239 19.3339C67.2446 19.6936 67.5306 19.9756 67.8821 20.1799C68.2336 20.3843 68.6628 20.4865 69.1696 20.4865C69.66 20.4865 70.081 20.3843 70.4325 20.1799C70.7839 19.9756 71.066 19.6936 71.2785 19.3339C71.491 18.9661 71.6463 18.541 71.7444 18.0587C71.8507 17.5765 71.9038 17.0574 71.9038 16.5016V16.2441C71.9038 15.7046 71.8507 15.1978 71.7444 14.7237C71.6463 14.2414 71.4869 13.8164 71.2662 13.4485C71.0537 13.0725 70.7717 12.7783 70.4202 12.5657C70.0687 12.3532 69.6437 12.247 69.145 12.247C68.6464 12.247 68.2214 12.3532 67.8699 12.5657C67.5266 12.7783 67.2446 13.0725 67.0239 13.4485C66.8113 13.8164 66.656 14.2414 66.5579 14.7237C66.4598 15.1978 66.4108 15.7046 66.4108 16.2441ZM85.4524 20.1064V4.16684H89.0081V23H85.808L85.4524 20.1064ZM77.0657 16.5261V16.2686C77.0657 15.255 77.1802 14.3354 77.4091 13.5099C77.6379 12.6761 77.9731 11.9609 78.4145 11.3641C78.8559 10.7674 79.3995 10.3056 80.0452 9.97864C80.691 9.65167 81.4266 9.48819 82.2522 9.48819C83.0288 9.48819 83.7072 9.65167 84.2876 9.97864C84.8761 10.3056 85.3747 10.7715 85.7834 11.3764C86.2003 11.9731 86.5355 12.6802 86.7889 13.4976C87.0423 14.3068 87.2262 15.1937 87.3406 16.1583V16.7223C87.2262 17.646 87.0423 18.5042 86.7889 19.2971C86.5355 20.09 86.2003 20.7848 85.7834 21.3815C85.3747 21.9701 84.8761 22.4278 84.2876 22.7548C83.699 23.0817 83.0124 23.2452 82.2277 23.2452C81.4021 23.2452 80.6664 23.0777 80.0207 22.7425C79.3831 22.4074 78.8436 21.9374 78.4022 21.3325C77.969 20.7276 77.6379 20.0164 77.4091 19.199C77.1802 18.3816 77.0657 17.4906 77.0657 16.5261ZM80.597 16.2686V16.5261C80.597 17.0738 80.6378 17.5846 80.7196 18.0587C80.8095 18.5328 80.9525 18.9538 81.1487 19.3216C81.3531 19.6813 81.6146 19.9633 81.9334 20.1677C82.2604 20.3638 82.6568 20.4619 83.1228 20.4619C83.7277 20.4619 84.2263 20.3271 84.6186 20.0573C85.011 19.7794 85.3093 19.3993 85.5137 18.917C85.7262 18.4348 85.8488 17.8789 85.8815 17.2495V15.6433C85.857 15.1283 85.7834 14.6665 85.6608 14.2578C85.5464 13.8409 85.3747 13.4853 85.1459 13.1911C84.9252 12.8968 84.6472 12.6679 84.3121 12.5044C83.9851 12.341 83.5969 12.2592 83.1473 12.2592C82.6895 12.2592 82.2972 12.3655 81.9702 12.578C81.6433 12.7824 81.3776 13.0644 81.1732 13.424C80.9771 13.7837 80.8299 14.2087 80.7318 14.6992C80.6419 15.1815 80.597 15.7046 80.597 16.2686ZM104.126 23.2452C103.096 23.2452 102.173 23.0817 101.355 22.7548C100.538 22.4196 99.8429 21.9578 99.2707 21.3693C98.7067 20.7807 98.2735 20.0982 97.971 19.3216C97.6686 18.5369 97.5174 17.7032 97.5174 16.8204V16.3299C97.5174 15.3245 97.6604 14.4049 97.9465 13.5712C98.2326 12.7374 98.6413 12.014 99.1726 11.4009C99.7121 10.7879 100.366 10.3179 101.134 9.9909C101.903 9.65576 102.769 9.48819 103.734 9.48819C104.674 9.48819 105.508 9.6435 106.235 9.95412C106.963 10.2647 107.572 10.7061 108.062 11.2783C108.561 11.8505 108.937 12.5371 109.19 13.3382C109.443 14.1311 109.57 15.0139 109.57 15.9866V17.458H99.0255V15.1038H106.1V14.8341C106.1 14.3436 106.01 13.9063 105.83 13.5221C105.659 13.1298 105.397 12.8191 105.046 12.5903C104.694 12.3614 104.245 12.247 103.697 12.247C103.231 12.247 102.831 12.3491 102.495 12.5535C102.16 12.7578 101.886 13.0439 101.674 13.4118C101.47 13.7796 101.314 14.2128 101.208 14.7114C101.11 15.2019 101.061 15.7414 101.061 16.3299V16.8204C101.061 17.3517 101.134 17.8421 101.282 18.2917C101.437 18.7413 101.653 19.1296 101.931 19.4565C102.217 19.7835 102.561 20.0369 102.961 20.2167C103.37 20.3965 103.832 20.4865 104.347 20.4865C104.984 20.4865 105.577 20.3638 106.125 20.1186C106.681 19.8652 107.159 19.4851 107.559 18.9783L109.276 20.842C108.998 21.2426 108.618 21.6267 108.136 21.9946C107.661 22.3624 107.089 22.6649 106.419 22.9019C105.749 23.1308 104.984 23.2452 104.126 23.2452ZM114.426 9.73341L116.62 13.7673L118.876 9.73341H122.641L118.889 16.2196L122.812 23H119.036L116.645 18.7331L114.254 23H110.477L114.401 16.2196L110.649 9.73341H114.426ZM127.888 12.2837V28.1006H124.357V9.73341H127.631L127.888 12.2837ZM136.287 16.2196V16.4771C136.287 17.4416 136.173 18.3367 135.944 19.1623C135.723 19.9878 135.396 20.7072 134.963 21.3202C134.53 21.9251 133.99 22.3992 133.345 22.7425C132.707 23.0777 131.971 23.2452 131.138 23.2452C130.328 23.2452 129.625 23.0817 129.029 22.7548C128.432 22.4278 127.929 21.9701 127.52 21.3815C127.12 20.7848 126.797 20.0941 126.552 19.3094C126.307 18.5247 126.119 17.6827 125.988 16.7836V16.1092C126.119 15.1447 126.307 14.2619 126.552 13.4608C126.797 12.6516 127.12 11.9527 127.52 11.3641C127.929 10.7674 128.428 10.3056 129.016 9.97864C129.613 9.65167 130.312 9.48819 131.113 9.48819C131.955 9.48819 132.695 9.64759 133.332 9.96638C133.978 10.2852 134.518 10.7429 134.951 11.3396C135.392 11.9363 135.723 12.6475 135.944 13.4731C136.173 14.2987 136.287 15.2142 136.287 16.2196ZM132.744 16.4771V16.2196C132.744 15.6556 132.695 15.1365 132.597 14.6624C132.507 14.1801 132.36 13.7592 132.155 13.3995C131.959 13.0398 131.697 12.7619 131.37 12.5657C131.052 12.3614 130.663 12.2592 130.206 12.2592C129.723 12.2592 129.311 12.3369 128.967 12.4922C128.632 12.6475 128.358 12.8723 128.146 13.1665C127.933 13.4608 127.774 13.8123 127.668 14.221C127.561 14.6297 127.496 15.0915 127.471 15.6065V17.3108C127.512 17.9157 127.627 18.4593 127.815 18.9416C128.003 19.4157 128.293 19.7917 128.685 20.0696C129.078 20.3475 129.593 20.4865 130.23 20.4865C130.696 20.4865 131.088 20.3843 131.407 20.1799C131.726 19.9674 131.984 19.6772 132.18 19.3094C132.384 18.9416 132.527 18.5165 132.609 18.0342C132.699 17.552 132.744 17.0329 132.744 16.4771ZM142.209 4.16684V23H138.666V4.16684H142.209ZM144.563 16.5016V16.2441C144.563 15.2714 144.702 14.3763 144.98 13.5589C145.258 12.7333 145.663 12.0181 146.194 11.4132C146.726 10.8083 147.379 10.3383 148.156 10.0032C148.933 9.65985 149.824 9.48819 150.829 9.48819C151.834 9.48819 152.729 9.65985 153.514 10.0032C154.299 10.3383 154.957 10.8083 155.488 11.4132C156.028 12.0181 156.436 12.7333 156.714 13.5589C156.992 14.3763 157.131 15.2714 157.131 16.2441V16.5016C157.131 17.4661 156.992 18.3612 156.714 19.1868C156.436 20.0042 156.028 20.7194 155.488 21.3325C154.957 21.9374 154.303 22.4074 153.526 22.7425C152.75 23.0777 151.859 23.2452 150.853 23.2452C149.848 23.2452 148.953 23.0777 148.168 22.7425C147.392 22.4074 146.734 21.9374 146.194 21.3325C145.663 20.7194 145.258 20.0042 144.98 19.1868C144.702 18.3612 144.563 17.4661 144.563 16.5016ZM148.095 16.2441V16.5016C148.095 17.0574 148.144 17.5765 148.242 18.0587C148.34 18.541 148.495 18.9661 148.708 19.3339C148.928 19.6936 149.215 19.9756 149.566 20.1799C149.918 20.3843 150.347 20.4865 150.853 20.4865C151.344 20.4865 151.765 20.3843 152.116 20.1799C152.468 19.9756 152.75 19.6936 152.962 19.3339C153.175 18.9661 153.33 18.541 153.428 18.0587C153.535 17.5765 153.588 17.0574 153.588 16.5016V16.2441C153.588 15.7046 153.535 15.1978 153.428 14.7237C153.33 14.2414 153.171 13.8164 152.95 13.4485C152.738 13.0725 152.456 12.7783 152.104 12.5657C151.753 12.3532 151.328 12.247 150.829 12.247C150.33 12.247 149.905 12.3532 149.554 12.5657C149.21 12.7783 148.928 13.0725 148.708 13.4485C148.495 13.8164 148.34 14.2414 148.242 14.7237C148.144 15.1978 148.095 15.7046 148.095 16.2441ZM162.833 12.6271V23H159.301V9.73341H162.624L162.833 12.6271ZM166.83 9.64759L166.768 12.9213C166.597 12.8968 166.388 12.8764 166.143 12.86C165.906 12.8355 165.689 12.8232 165.493 12.8232C164.995 12.8232 164.561 12.8886 164.194 13.0194C163.834 13.142 163.532 13.3259 163.286 13.5712C163.049 13.8164 162.869 14.1147 162.747 14.4662C162.632 14.8177 162.567 15.2182 162.551 15.6678L161.839 15.4471C161.839 14.5888 161.925 13.8 162.097 13.0807C162.269 12.3532 162.518 11.7197 162.845 11.1802C163.18 10.6407 163.589 10.2239 164.071 9.92959C164.553 9.63532 165.105 9.48819 165.726 9.48819C165.922 9.48819 166.123 9.50454 166.327 9.53724C166.531 9.56176 166.699 9.59854 166.83 9.64759ZM174.358 23.2452C173.328 23.2452 172.405 23.0817 171.587 22.7548C170.77 22.4196 170.075 21.9578 169.503 21.3693C168.939 20.7807 168.505 20.0982 168.203 19.3216C167.901 18.5369 167.749 17.7032 167.749 16.8204V16.3299C167.749 15.3245 167.892 14.4049 168.179 13.5712C168.465 12.7374 168.873 12.014 169.405 11.4009C169.944 10.7879 170.598 10.3179 171.366 9.9909C172.135 9.65576 173.001 9.48819 173.966 9.48819C174.906 9.48819 175.74 9.6435 176.467 9.95412C177.195 10.2647 177.804 10.7061 178.294 11.2783C178.793 11.8505 179.169 12.5371 179.422 13.3382C179.675 14.1311 179.802 15.0139 179.802 15.9866V17.458H169.257V15.1038H176.332V14.8341C176.332 14.3436 176.242 13.9063 176.062 13.5221C175.891 13.1298 175.629 12.8191 175.278 12.5903C174.926 12.3614 174.477 12.247 173.929 12.247C173.463 12.247 173.063 12.3491 172.727 12.5535C172.392 12.7578 172.118 13.0439 171.906 13.4118C171.702 13.7796 171.546 14.2128 171.44 14.7114C171.342 15.2019 171.293 15.7414 171.293 16.3299V16.8204C171.293 17.3517 171.366 17.8421 171.514 18.2917C171.669 18.7413 171.885 19.1296 172.163 19.4565C172.449 19.7835 172.793 20.0369 173.193 20.2167C173.602 20.3965 174.064 20.4865 174.579 20.4865C175.216 20.4865 175.809 20.3638 176.357 20.1186C176.913 19.8652 177.391 19.4851 177.791 18.9783L179.508 20.842C179.23 21.2426 178.85 21.6267 178.368 21.9946C177.893 22.3624 177.321 22.6649 176.651 22.9019C175.981 23.1308 175.216 23.2452 174.358 23.2452ZM185.344 12.6271V23H181.813V9.73341H185.136L185.344 12.6271ZM189.341 9.64759L189.28 12.9213C189.108 12.8968 188.9 12.8764 188.655 12.86C188.418 12.8355 188.201 12.8232 188.005 12.8232C187.506 12.8232 187.073 12.8886 186.705 13.0194C186.345 13.142 186.043 13.3259 185.798 13.5712C185.561 13.8164 185.381 14.1147 185.258 14.4662C185.144 14.8177 185.078 15.2182 185.062 15.6678L184.351 15.4471C184.351 14.5888 184.437 13.8 184.608 13.0807C184.78 12.3532 185.029 11.7197 185.356 11.1802C185.692 10.6407 186.1 10.2239 186.583 9.92959C187.065 9.63532 187.617 9.48819 188.238 9.48819C188.434 9.48819 188.634 9.50454 188.839 9.53724C189.043 9.56176 189.21 9.59854 189.341 9.64759Z" fill="white"/>
<path d="M13.0635 0.306641L25.7096 7.60782V22.2102L13.0635 29.5114L0.417527 22.2102V7.60782L13.0635 0.306641Z" fill="#065E7C"/>
</svg>
